inDegrees=no
num_controls=7
num_derivatives=13
num_iterations=99
num_multipliers=7
num_parameters=0
num_slacks=7
num_states=26
objective=0.312118
objective_accelerations=0.054785
objective_balance=0.002207
objective_effort=0.038178
objective_height=0.215361
objective_ligament=0.001588
solver_duration=1053.400035
status=Solve_Succeeded
success=true
DataType=double
version=3
OpenSimVersion=4.5
endheader
time	/jointset/ground_pelvis/pelvis_tilt/value	/jointset/ground_pelvis/pelvis_tx/value	/jointset/ground_pelvis/pelvis_ty/value	/jointset/hip_r/hip_flexion_r/value	/jointset/hip_r/hip_adduction_r/value	/jointset/hip_r/hip_rotation_r/value	/jointset/back/lumbar_extension/value	/jointset/patellofemoral_r/patellar_flexion_r/value	/jointset/knee_r/knee_flexion_r/value	/jointset/knee_r/knee_adduction_r/value	/jointset/knee_r/knee_rotation_r/value	/jointset/ankle_r/ankle_angle_r/value	/jointset/subtalar_r/subtalar_angle_r/value	/jointset/ground_pelvis/pelvis_tilt/speed	/jointset/ground_pelvis/pelvis_tx/speed	/jointset/ground_pelvis/pelvis_ty/speed	/jointset/hip_r/hip_flexion_r/speed	/jointset/hip_r/hip_adduction_r/speed	/jointset/hip_r/hip_rotation_r/speed	/jointset/back/lumbar_extension/speed	/jointset/patellofemoral_r/patellar_flexion_r/speed	/jointset/knee_r/knee_flexion_r/speed	/jointset/knee_r/knee_adduction_r/speed	/jointset/knee_r/knee_rotation_r/speed	/jointset/ankle_r/ankle_angle_r/speed	/jointset/subtalar_r/subtalar_angle_r/speed	/forceset/tau_hip_flexion_r	/forceset/tau_hip_adduction_r	/forceset/tau_hip_rotation_r	/forceset/tau_knee_flexion_r	/forceset/tau_ankle_angle_r	/forceset/tau_subtalar_angle_r	/forceset/tau_lumbar_extension	lambda_cid13_p0	lambda_cid14_p0	lambda_cid14_p1	lambda_cid14_p2	lambda_cid14_p3	lambda_cid14_p4	lambda_cid14_p5	/jointset/ground_pelvis/pelvis_tilt/accel	/jointset/ground_pelvis/pelvis_tx/accel	/jointset/ground_pelvis/pelvis_ty/accel	/jointset/hip_r/hip_flexion_r/accel	/jointset/hip_r/hip_adduction_r/accel	/jointset/hip_r/hip_rotation_r/accel	/jointset/back/lumbar_extension/accel	/jointset/patellofemoral_r/patellar_flexion_r/accel	/jointset/knee_r/knee_flexion_r/accel	/jointset/knee_r/knee_adduction_r/accel	/jointset/knee_r/knee_rotation_r/accel	/jointset/ankle_r/ankle_angle_r/accel	/jointset/subtalar_r/subtalar_angle_r/accel	gamma_cid13_p0	gamma_cid14_p0	gamma_cid14_p1	gamma_cid14_p2	gamma_cid14_p3	gamma_cid14_p4	gamma_cid14_p5
1.5	-0.1947351921106822	-0.0131644554183565	0.6975828443181531	1.250598408165324	-0.2391451694335896	-0.03495667945912918	-0.6790236055888794	1.327996753026361	1.327996753026374	-0.05911545350014037	0.1744059712953505	0.3737630317932882	0.143517718632732	0.6282620467109198	0.2503335250802776	0.9916269122454874	-3.13658477797797	0.02429282932070852	-0.4220166328554967	0.7544800517819317	-2.913432451121075	-2.913432451121112	0.4663066835919525	0.001711400782627435	-0.5390396659371295	-0.1834160790822772	-0.2453752788454508	0.002642531925867587	0.01962260618525833	-0.3604932922861374	0.03156942232579526	-0.0001196055629374228	0.276283572243951	-0.04329980717876633	-31.76809565511163	-6.580484619217281	2.574648695604373	-12.55962499734757	-630.8740752278342	62.58833547050214	1.470997778740275	1.255694757457569	-0.7295068998406876	-1.92962354649899	0.02997248020393357	-0.4134980229248301	2.801434088138369	-2.376403846219358	-2.376403846219496	0.5000230876622892	-0.07609347476359443	-2.094705299017398	-0.6373701118344618	5.992552350735276e-07	5.157799867055917e-07	1.913175513212951e-07	4.615733063994882e-06	-1.79461491038074e-07	3.715669268526394e-07	3.069827805722933e-06
1.51	-0.1883801386877562	-0.01059856362397391	0.7074603206862791	1.219139336312199	-0.2389027406675692	-0.03919247132565219	-0.6713401249096619	1.29874753242733	1.298747532427339	-0.0544199714797477	0.1744209523810182	0.3682688121610225	0.141648954618898	0.6425743705958885	0.2628161737006351	0.9836292962739076	-3.154824554158124	0.02415554492762571	-0.4251588828955034	0.7821392374628012	-2.936037653542227	-2.936037653542272	0.4727646958454086	0.001266226072816243	-0.5596527123477862	-0.1902929635873169	-0.2348890434188305	0.001814550807142663	0.01971869604503744	-0.3511271478652607	0.03184388797474124	8.283935858186915e-05	0.266452253345966	-0.0433265669273947	-30.97132121091139	-6.176244543800625	2.308246428469495	-12.418746701627	-620.480934976996	61.99746560505037	1.385333453451757	1.240152383689925	-0.8706453329519154	-1.710259072249241	-0.04025436677998557	-0.2662510645745852	2.736633818211192	-2.146645741259794	-2.14664574126079	0.7146367711766723	-0.02996451604925609	-2.02184654007961	-0.7052740241447478	7.633366601783659e-07	7.286488597570137e-07	7.836909953383857e-07	6.253678498591588e-06	-3.861205958985198e-07	4.67482623814055e-07	4.220155749937157e-06
1.52	-0.1818871652739647	-0.007908724849514704	0.7172506696172621	1.187510045813576	-0.2386626198390228	-0.04346001820658189	-0.6633823577716058	1.269283446343847	1.269283446343852	-0.04966072004142593	0.1744312347101854	0.3625730136190522	0.1397129364791522	0.6558460448839194	0.2751229210955999	0.9742014248169174	-3.170628507077303	0.02383124182591852	-0.4283676357369495	0.8093373435496674	-2.956405548011243	-2.956405548011295	0.4790605671784413	0.0007716494846288738	-0.5793554478780353	-0.1968669042645975	-0.2244028079922125	0.0009865696884195961	0.01981478590484241	-0.3417610034443818	0.03211835362368794	0.000285284280104045	0.2566209344479785	-0.04329048636605291	-30.17444179675841	-5.768208163349726	2.03691792938143	-12.31147486618547	-610.0742739928808	61.54912573668398	1.26286785935271	1.22051451237904	-1.015557996922741	-1.442458894303838	-0.00743126152094404	-0.426798583212675	2.709218169337644	-1.928942255792115	-1.928942255792111	0.467594903577593	-0.08597385043882952	-1.912643122935903	-0.5767813462826615	8.200598119376142e-07	7.866152913610982e-07	3.247445584086323e-07	6.609594946990967e-06	-4.036294794212808e-07	5.846251122558758e-07	3.866265517782248e-06
1.53	-0.1752664555073701	-0.005096824973890027	0.7269397814389618	1.155734398324254	-0.2384271245705628	-0.047762742335136	-0.6551555982993057	1.23962652543977	1.239626525439781	-0.0448409430465212	0.1744380703852678	0.3566846945937792	0.137712016119929	0.6681131534587667	0.2872146948170278	0.9633891100595201	-3.184080976805518	0.02323017071007932	-0.4321632202069376	0.8359131614509233	-2.974578612479248	-2.974578612479261	0.4849116729278936	0.0005795104298842646	-0.5981417928511932	-0.2032699066118447	-0.2138956132233741	-8.443598214712537e-05	0.02007418383543572	-0.332698037650378	0.03235136513395887	0.0002856825592770225	0.2467026072044733	-0.08729971118642506	-29.43293608172395	-5.480124984012793	1.810428286013912	-12.05435472854549	-599.9433942896417	60.98079698107402	1.181294458081764	1.197130530431738	-1.1486828131246	-1.23354738254462	-0.09153034752040647	-0.3529073753246225	2.616555181568808	-1.70163189652488	-1.701631896519135	0.6458575052669575	0.01274707490046528	-1.836526346839598	-0.6647028516706317	7.627147982671743e-07	6.799978789273882e-07	-1.251229252027131e-06	5.603355597555701e-06	-2.201662527727537e-07	7.243210666456266e-07	1.914143473235153e-06
1.54	-0.1685285422347203	-0.002165283015369629	0.736513847193492	1.123836844863556	-0.2381986570754422	-0.05210281610767693	-0.6466661223317831	1.209799845220169	1.209799845220186	-0.0399622571751943	0.1744427008713747	0.3506135328863078	0.1356485371026884	0.679286746094854	0.2990513376747438	0.9511922113830688	-3.195009701352304	0.0224256871580407	-0.4358375645342344	0.8618806425941472	-2.990357411116062	-2.990357411116037	0.4908423424628626	0.0003306116908483746	-0.6159239843177062	-0.2093786358680873	-0.2033884184545379	-0.001155441652715181	0.0203335817660265	-0.3236350718563746	0.03258437664422965	0.0002860808384477665	0.2367842799609661	-0.2972518124673362	-28.6755609363372	-5.173861770004419	1.563444710650069	-11.87134584886506	-589.5998909912288	60.54502019772739	1.044164671600713	1.169488339636636	-1.292474780733583	-0.9377098580179367	-0.04811374876081664	-0.4025505546743807	2.587550817731184	-1.450089089553835	-1.450089089553835	0.483507660680941	-0.09732578729711151	-1.71181242160699	-0.5179267280817459	7.207998738893965e-07	6.065385270902876e-07	-2.359240224195889e-06	4.907301626692624e-06	-9.449414773848712e-08	8.299597716399676e-07	5.069420546365879e-07
1.55	-0.1616842952451005	0.0008832396108511552	0.7459591695215695	1.091842444355583	-0.2379793471663103	-0.05648041942187229	-0.6379204901505047	1.179827321841683	1.179827321841651	-0.03502482021353037	0.174445121357885	0.3443696858511932	0.1335253959009144	0.6893706635579696	0.3105976654668569	0.9376518212517534	-3.203435307009537	0.02139806910957434	-0.4396973434663911	0.8871116103880121	-3.003728872997045	-3.003728872997045	0.4966453721716165	0.0001576689963499834	-0.6326659476275303	-0.2152010187527362	-0.1928042058227865	-0.002492272727189905	0.02070603156351865	-0.3153886473492296	0.03314315722201835	-2.480138142296421e-05	0.2267740031601871	-0.6732385757945551	-27.88019138033115	-5.025038064709288	1.374578359998851	-11.61125217009523	-579.8031243791012	59.95768109871504	0.96176393783164	1.138876167271924	-1.417699427074899	-0.7296481733809272	-0.13539954783251	-0.3788952489331844	2.470742269150009	-1.218052650481206	-1.218052650484933	0.6281420317277667	0.02413197424146003	-1.628317035978492	-0.6071004740390519	6.96663095870554e-07	5.712830276797132e-07	-2.928076621839647e-06	4.568635157227919e-06	-3.54074654336909e-08	8.963586023309037e-07	-2.724160340647921e-07
1.56	-0.1547449573500164	0.004045559748647755	0.7552625122887848	1.059776855340277	-0.2377713761806515	-0.06089686126267905	-0.6289265737895006	1.149733608261765	1.149733608261684	-0.03002946467362555	0.1744460945144032	0.3379638334329186	0.1313454895892175	0.69830492718767	0.3218108399899068	0.9227962992106644	-3.209247402818967	0.02015790246338984	-0.4436052698564223	0.9115374785393108	-3.014595451402452	-3.014595451402477	0.5024260581105768	4.114569255751356e-05	-0.6483250609496898	-0.2207316578526891	-0.1822199931910377	-0.003829103801666122	0.02107848136099555	-0.307142222842086	0.0337019377998069	-0.0003356836012958748	0.2167637263594057	-1.20805295371197	-27.06777184861723	-4.85734115183863	1.16455282644282	-11.41423667608915	-569.7728775944589	59.50051737559717	0.8142339049176616	1.102857685823963	-1.555501162688316	-0.4150078884574003	-0.09062346830442938	-0.4121800462492845	2.42653088921791	-0.949112394438432	-0.9491123944384169	0.4790389067222302	-0.0860419091559604	-1.495242424074092	-0.4595779711425485	6.720809772357015e-07	5.311224303044239e-07	-3.520553166250274e-06	4.171992430207387e-06	3.17261652824528e-08	9.551686040278718e-07	-1.027352101794665e-06
1.57	-0.1477219565327507	0.007318216956025974	0.7644108754510111	1.027666140205539	-0.2375768161844924	-0.06535375625271013	-0.6196928179603217	1.119543823267482	1.119543823267439	-0.02497732603794706	0.1744465197183313	0.3314069310391951	0.1291119251223135	0.706097576442124	0.332650307500205	0.9066681647492778	-3.212438418134479	0.01872086693953272	-0.4477659798131358	0.9350513237447104	-3.022911569791676	-3.02291156979171	0.5080175201718586	3.816619722058712e-05	-0.6628621197341202	-0.2259244327525933	-0.1717525043442981	-0.005465782377282565	0.02152085280416895	-0.2995897145061562	0.03433330639956813	-0.0008929838341483442	0.2068283493716485	-1.895567497594812	-26.30131690478617	-4.821222992533589	0.9943666235264347	-11.08662774094655	-560.4220591017996	58.94161907330673	0.7321694701203666	1.06397785827347	-1.672488282425272	-0.2025131363516872	-0.1750078312492622	-0.4159492636551615	2.28945680340765	-0.7054914054329079	-0.7054914054343369	0.6008692701027469	0.0422584610288387	-1.403758053841479	-0.5409112977108421	6.469421828308366e-07	4.848304604732411e-07	-4.142579894119485e-06	3.702879381242076e-06	1.089184815127808e-07	1.004492569482381e-06	-1.751760643310155e-06
